File Name

Platoon 1986 BRRip H264 LKRG-Wrath.mp4

File Size
Format : MPEG-4
Format profile : Base Media
Codec ID : isom
File size : 3.00 GiB
Duration : 1h 59mn
Overall bit rate : 3 583 Kbps

Video
ID : 1
Format : AVC
Format/Info : Advanced Video Codec
Format profile : High@L4.1
Format settings, CABAC : Yes
Format settings, ReFrames : 3 frames
Codec ID : avc1
Codec ID/Info : Advanced Video Coding
Duration : 1h 59mn
Bit rate mode : Variable
Bit rate : 3 005 Kbps
Maximum bit rate : 17.2 Mbps
Width : 1 280 pixels
Height : 688 pixels
Display aspect ratio : 1.860
Frame rate mode : Constant
Frame rate : 23.976 fps
Resolution : 24 bits
Colorimetry : 4:2:0
Scan type : Progressive
Bits/(Pixel*Frame) : 0.142
Stream size : 2.51 GiB (84%)

Audio #1
ID : 2
Format : AAC
Format/Info : Advanced Audio Codec
Format version : Version 4
Format profile : LC
Format settings, SBR : No
Codec ID : 40
Codec ID : 40
Codec ID : 40
Duration : 1h 59mn
Bit rate mode : Variable
Bit rate : 128 Kbps
Maximum bit rate : 135 Kbps
Channel(s) : 2 channels
Channel positions : L R
Sampling rate : 48.0 KHz
Resolution : 16 bits
Stream size : 110 MiB (4%)

Audio #2
ID : 3
Format : AAC
Format/Info : Advanced Audio Codec
Format version : Version 4
Format profile : LC
Format settings, SBR : No
Codec ID : 40
Duration : 1h 59mn
Bit rate mode : Variable
Bit rate : 448 Kbps
Maximum bit rate : 459 Kbps
Channel(s) : 6 channels
Channel positions : Front: L C R, Rear: L R, LFE
Sampling rate : 48.0 KHz
Resolution : 16 bits
Stream size : 384 MiB (12%)

Text
ID : 4
Format : Timed text
Codec ID : tx3g
Duration : 1h 55mn
Bit rate mode : Variable
Bit rate : 63 bps
Stream size : 53.2 KiB (0%)

English SRT : External

Language :English


 
http://www.imdb.com/title/tt0091763/

Release Date: 24 December 1986 (USA) 

Genre: Action | Drama | War 

Plot: A young recruit in Vietnam faces a moral crisis when confronted with the horrors of war and the duality of man.

Cast: 
Keith David ... King
Forest Whitaker ... Big Harold
Francesco Quinn ... Rhah
Kevin Dillon ... Bunny
John C. McGinley ... Sgt. O'Neill
Reggie Johnson ... Junior
Mark Moses ... Lt. Wolfe
Corey Glover ... Francis
Johnny Depp ... Lerner
Chris Pedersen ... Crawford
Bob Orwig ... Gardner
Corkey Ford ... Manny
David Neidorf ... Tex
Tom Berenger ... Sgt. Barnes
Willem Dafoe ... Sgt. Elias
Charlie Sheen ... Chris
Richard Edson ... Sal
Tony Todd ... Warren
Kevin Eshelman ... Morehouse
Terry McIlvain ... Ace (as James Terry McIlvain)
J. Adam Glover ... Sanderson
Ivan Kane ... Tony
Paul Sanchez ... Doc
Dale Dye ... Captain Harris
Peter Hicks ... Parker
Basile Achara ... Flash
Steve Barredo ... Fu Sheng
Chris Castillejo ... Rodriguez
Andrew B. Clark ... Tubbs
Bernardo Manalili ... Village Chief
Than Rogers ... Village Chief's Wife
Li Thi Van ... Village Chief's Daughter
Clarisa Ortacio ... Old Woman
Romy Sevilla ... One-Legged Man
Mathew Westfall ... Terrified Soldier
Nick Nicholson ... Mechanized Soldier #1 (as Nick Nickelson)
Warren McLean ... Mechanized Soldier #2
Li Mai Thao ... Rape Victim
Ron Barracks ... Medic
H. Gordon Boos ... Soldier with Mohawk Haircut (uncredited)
Mark Ebenhoch ... Ebenhoch (uncredited)
Robert 'Rock' Galotti ... Huffmeister (uncredited)
Eric Hahn ... Soldier (uncredited)
Fernando Lara ... Soilder (uncredited)
Oliver Stone ... Alpha Company Major in Bunker (uncredited)
Henry Strzalkowski ... Bit Part (uncredited)



Screenshots
 
http://postimg.com/image/17000/16241.jpg